<?xml version="1.0" encoding="UTF-8" standalone="no"?>
<svg width="258px" height="66px" viewBox="0 0 258 66" version="1.1" xmlns="http://www.w3.org/2000/svg" xmlns:xlink="http://www.w3.org/1999/xlink" xmlns:sketch="http://www.bohemiancoding.com/sketch/ns">
    <!-- Generator: Sketch 3.4.4 (17249) - http://www.bohemiancoding.com/sketch -->
    <title>Logo-white</title>
    <desc>Created with Sketch.</desc>
    <defs></defs>
    <g id="Page-1" stroke="none" stroke-width="1" fill="none" fill-rule="evenodd" sketch:type="MSPage">
        <g id="Logo-white" sketch:type="MSArtboardGroup" fill="#FCFFFB">
            <path d="M96.3076172,48 L90.9619141,48 L82.6064453,24.4384766 L88.5361328,24.4384766 L93.7695312,39.9589844 L98.9804688,24.4384766 L104.775391,24.4384766 L96.3076172,48 Z M113.748047,18.0146484 C113.748047,19.1077529 113.478518,19.8714171 112.939453,20.3056641 C112.400388,20.739911 111.576828,20.9570312 110.46875,20.9570312 C109.240879,20.9570312 108.406089,20.7024765 107.964355,20.1933594 C107.522621,19.6842422 107.301758,18.9580125 107.301758,18.0146484 C107.301758,16.9664661 107.541339,16.2140322 108.020508,15.7573242 C108.499677,15.3006162 109.315749,15.0722656 110.46875,15.0722656 C111.636725,15.0722656 112.475258,15.2931293 112.984375,15.7348633 C113.493492,16.1765973 113.748047,16.936518 113.748047,18.0146484 L113.748047,18.0146484 Z M107.616211,48 L107.616211,24.4384766 L113.411133,24.4384766 L113.411133,48 L107.616211,48 Z M140.352539,36.2753906 C140.352539,40.1985873 139.446624,43.2495008 137.634766,45.4282227 C135.822908,47.6069445 132.970397,48.6962891 129.077148,48.6962891 C121.530236,48.6962891 117.756836,44.556031 117.756836,36.2753906 C117.756836,32.2922978 118.662751,29.2114367 120.474609,27.0327148 C122.286467,24.853993 125.153952,23.7646484 129.077148,23.7646484 C132.970397,23.7646484 135.822908,24.853993 137.634766,27.0327148 C139.446624,29.2114367 140.352539,32.2922978 140.352539,36.2753906 L140.352539,36.2753906 Z M134.355469,36.2753906 C134.355469,33.6848829 133.951176,31.7944395 133.142578,30.6040039 C132.33398,29.4135683 130.978851,28.8183594 129.077148,28.8183594 C127.19042,28.8183594 125.827804,29.4285421 124.989258,30.6489258 C124.150712,31.8693095 123.731445,33.744779 123.731445,36.2753906 C123.731445,38.7910282 124.146969,40.644037 124.978027,41.8344727 C125.809086,43.0249083 127.175446,43.6201172 129.077148,43.6201172 C130.948903,43.6201172 132.296545,43.0323952 133.120117,41.8569336 C133.943689,40.681472 134.355469,38.8209763 134.355469,36.2753906 L134.355469,36.2753906 Z M172.751953,48 L172.751953,34.1191406 C172.751953,32.7265555 172.669597,31.6409544 172.504883,30.8623047 C172.340168,30.083655 172.089357,29.5558282 171.752441,29.2788086 C171.415526,29.001789 170.857751,28.8632812 170.079102,28.8632812 C169.195634,28.8632812 168.259771,29.192705 167.271484,29.8515625 C166.283198,30.51042 165.362309,31.3190056 164.508789,32.2773438 L164.508789,48 L158.713867,48 L158.713867,34.1191406 C158.713867,32.5917892 158.646485,31.4874709 158.511719,30.8061523 C158.376952,30.1248338 158.137372,29.6306981 157.792969,29.3237305 C157.448566,29.0167628 156.864587,28.8632812 156.041016,28.8632812 C155.322262,28.8632812 154.491216,29.1365533 153.547852,29.6831055 C152.604487,30.2296577 151.578782,31.0943951 150.470703,32.2773438 L150.470703,48 L144.675781,48 L144.675781,24.4384766 L150.470703,24.4384766 L150.470703,27.4931641 C151.548834,26.3251895 152.679356,25.4117871 153.862305,24.7529297 C155.045253,24.0940722 156.355462,23.7646484 157.792969,23.7646484 C159.754567,23.7646484 161.203283,24.1015591 162.13916,24.7753906 C163.075037,25.4492221 163.715168,26.4449804 164.05957,27.7626953 C165.407233,26.4150323 166.668777,25.4117871 167.844238,24.7529297 C169.0197,24.0940722 170.393547,23.7646484 171.96582,23.7646484 C174.256847,23.7646484 175.926427,24.4160091 176.974609,25.71875 C178.022792,27.0214909 178.546875,29.2076669 178.546875,32.2773438 L178.546875,48 L172.751953,48 Z M188.665039,37.7353516 C188.769857,39.8317162 189.278967,41.336584 190.192383,42.25 C191.105799,43.163416 192.543284,43.6201172 194.504883,43.6201172 C195.642909,43.6201172 196.642411,43.477866 197.503418,43.1933594 C198.364425,42.9088527 199.116859,42.3623087 199.760742,41.5537109 L204.073242,44.6308594 C203.129878,45.9934964 201.905769,47.0117154 200.400879,47.6855469 C198.895989,48.3593784 196.840833,48.6962891 194.235352,48.6962891 C190.357077,48.6962891 187.463388,47.6780701 185.554199,45.6416016 C183.64501,43.605133 182.69043,40.5280154 182.69043,36.4101562 C182.69043,27.9797756 186.463829,23.7646484 194.010742,23.7646484 C197.364926,23.7646484 199.921703,24.7117418 201.681152,26.605957 C203.440601,28.5001722 204.320312,31.2590965 204.320312,34.8828125 L204.320312,37.7353516 L188.665039,37.7353516 Z M198.570312,33.7373047 C198.570312,30.1585108 197.00555,28.3691406 193.875977,28.3691406 C192.842768,28.3691406 191.996748,28.5450829 191.337891,28.8969727 C190.679033,29.2488624 190.151206,29.7729457 189.754395,30.4692383 C189.357583,31.1655308 189.046876,32.2548754 188.822266,33.7373047 L198.570312,33.7373047 Z M224.029297,48 L224.029297,45.7089844 C222.951166,46.6224004 221.813157,47.3486301 220.615234,47.8876953 C219.417312,48.4267605 218.054695,48.6962891 216.527344,48.6962891 C213.562485,48.6962891 211.293953,47.6256617 209.72168,45.484375 C208.149406,43.3430883 207.363281,40.3183789 207.363281,36.4101562 C207.363281,32.4120894 208.228019,29.3050241 209.95752,27.0888672 C211.68702,24.8727103 214.116521,23.7646484 217.246094,23.7646484 C218.354172,23.7646484 219.492182,23.992999 220.660156,24.449707 C221.828131,24.906415 222.793941,25.4866501 223.557617,26.1904297 L223.557617,14.5556641 L229.352539,14.5556641 L229.352539,48 L224.029297,48 Z M223.557617,30.9746094 C222.943682,30.4205701 222.183761,29.9301779 221.277832,29.503418 C220.371903,29.076658 219.44727,28.8632812 218.503906,28.8632812 C216.946607,28.8632812 215.696294,29.5333592 214.75293,30.8735352 C213.809566,32.2137111 213.337891,34.0292854 213.337891,36.3203125 C213.337891,38.5813915 213.723466,40.3557878 214.494629,41.6435547 C215.265792,42.9313215 216.459953,43.5751953 218.077148,43.5751953 C219.035487,43.5751953 220.012528,43.3543316 221.008301,42.9125977 C222.004074,42.4708637 222.853838,41.9280631 223.557617,41.2841797 L223.557617,30.9746094 Z M256.293945,36.2753906 C256.293945,40.1985873 255.38803,43.2495008 253.576172,45.4282227 C251.764314,47.6069445 248.911803,48.6962891 245.018555,48.6962891 C237.471642,48.6962891 233.698242,44.556031 233.698242,36.2753906 C233.698242,32.2922978 234.604158,29.2114367 236.416016,27.0327148 C238.227874,24.853993 241.095358,23.7646484 245.018555,23.7646484 C248.911803,23.7646484 251.764314,24.853993 253.576172,27.0327148 C255.38803,29.2114367 256.293945,32.2922978 256.293945,36.2753906 L256.293945,36.2753906 Z M250.296875,36.2753906 C250.296875,33.6848829 249.892582,31.7944395 249.083984,30.6040039 C248.275387,29.4135683 246.920257,28.8183594 245.018555,28.8183594 C243.131827,28.8183594 241.76921,29.4285421 240.930664,30.6489258 C240.092118,31.8693095 239.672852,33.744779 239.672852,36.2753906 C239.672852,38.7910282 240.088375,40.644037 240.919434,41.8344727 C241.750492,43.0249083 243.116852,43.6201172 245.018555,43.6201172 C246.890309,43.6201172 248.237952,43.0323952 249.061523,41.8569336 C249.885095,40.681472 250.296875,38.8209763 250.296875,36.2753906 L250.296875,36.2753906 Z" id="viomedo" sketch:type="MSShapeGroup"></path>
            <path d="M28.579127,43.0952381 L26.579127,45 L11.3293799,31.6564713 C10.9133097,31.2924099 10.2643023,31.3148247 9.87594641,31.7031806 L1.28230757,40.2968194 C0.889372739,40.6897542 0.908756433,41.3042733 1.31537496,41.6796135 L25.842879,64.3203865 C26.2503909,64.6965513 26.9082373,64.6962059 27.3142153,64.3214569 L32.1890631,59.8215974 C29.9225747,56.8132712 28.579127,53.0712069 28.579127,49.0151892 L28.579127,43.0952381 Z M63.2163823,10.1073758 L67.8501383,5.6942749 C68.2527477,5.31083746 68.867623,5.34619522 69.2198842,5.76890868 L77.9383698,16.2310913 C78.2922502,16.6557479 78.2470652,17.3065186 77.8440386,17.6785431 L64.579127,29.9230769 L64.579127,16.9848108 C64.579127,14.548768 64.0945186,12.2259745 63.2163823,10.1073758 Z M30.579127,16.9848108 L30.579127,49.0151892 C30.579127,57.8446785 37.742571,65 46.579127,65 C55.3977024,65 62.579127,57.8433564 62.579127,49.0151892 L62.579127,16.9848108 C62.579127,8.15532148 55.415683,1 46.579127,1 C37.7605516,1 30.579127,8.15664358 30.579127,16.9848108 Z M32.579127,49.0083891 C32.579127,56.7357424 38.8454404,63 46.579127,63 C54.3111135,63 60.579127,56.7346667 60.579127,49.0083891 L60.579127,16.9916109 C60.579127,9.26425757 54.3128135,3 46.579127,3 C38.8471405,3 32.579127,9.26533335 32.579127,16.9916109 L32.579127,49.0083891 Z M34.579127,40.4982452 C34.579127,39.6707872 35.2449242,39 36.079127,39 C36.9075541,39 37.579127,39.6752491 37.579127,40.4982452 L37.579127,51.5017548 C37.579127,52.3292128 36.9133298,53 36.079127,53 C35.2506999,53 34.579127,52.3247509 34.579127,51.5017548 L34.579127,40.4982452 Z M34.579127,17.0077068 C34.579127,10.3760334 39.9502528,5 46.579127,5 C53.206544,5 58.579127,10.3633988 58.579127,17.0077068 L58.579127,35 L34.579127,35 L34.579127,17.0077068 Z" id="Logo" sketch:type="MSShapeGroup"></path>
        </g>
    </g>
</svg>